# xmcd
#
# Track frame offsets: 
#        150
#        25687
#        49780
#        73560
#        97402
#        122077
#        143425
#        161097
#        176555
#        211830
#        232280
#
# Disc length: 3431 seconds
#
# Revision: 8
# Processed by: cddbd v1.5.2PL0 Copyright (c) Steve Scherf et al.
# Submitted via: ExactAudioCopyFreeDBPlugin 1.0
#
DISCID=9b0d650b
DTITLE=Buddy Guy - Heavy Love
DYEAR=1998
DGENRE=Blues
TTITLE0=Heavy Love
TTITLE1=Midnight Train (ft. Jonny Lang)
TTITLE2=I Got a Problem
TTITLE3=I Need You Tonight
TTITLE4=Saturday Night Fish Fry
TTITLE5=Had a Bad Night
TTITLE6=Are You Lonely for Me Baby
TTITLE7=I Just Want to Make Love to You
TTITLE8=Did Somebody Make a Fool Out of You?
TTITLE9=When The Time is Right
TTITLE10=Let it Show
EXTD=YEAR: 1998 ID3G: 0
EXTT0=
EXTT1=featuring Jonny Lang\n
EXTT2=
EXTT3=
EXTT4=
EXTT5=
EXTT6=
EXTT7=
EXTT8=
EXTT9=
EXTT10=
PLAYORDER=
